<svg width="100" height="30" viewBox="0 0 100 30" fill="none" xmlns="http://www.w3.org/2000/svg">
<rect width="100" height="30" fill="white"/>
<path d="M9.728 19.084C8.936 19.084 8.208 18.9 7.544 18.532C6.888 18.164 6.364 17.652 5.972 16.996C5.588 16.332 5.396 15.588 5.396 14.764C5.396 13.94 5.588 13.2 5.972 12.544C6.364 11.888 6.888 11.376 7.544 11.008C8.208 10.64 8.936 10.456 9.728 10.456C10.52 10.456 11.244 10.64 11.9 11.008C12.564 11.376 13.084 11.888 13.46 12.544C13.844 13.2 14.036 13.94 14.036 14.764C14.036 15.588 13.844 16.332 13.46 16.996C13.076 17.652 12.556 18.164 11.9 18.532C11.244 18.9 10.52 19.084 9.728 19.084ZM9.728 17.212C10.4 17.212 10.936 16.988 11.336 16.54C11.744 16.092 11.948 15.5 11.948 14.764C11.948 14.02 11.744 13.428 11.336 12.988C10.936 12.54 10.4 12.316 9.728 12.316C9.048 12.316 8.504 12.536 8.096 12.976C7.696 13.416 7.496 14.012 7.496 14.764C7.496 15.508 7.696 16.104 8.096 16.552C8.504 16.992 9.048 17.212 9.728 17.212ZM19.4736 19L17.7216 15.82H17.2296V19H15.1776V10.576H18.6216C19.2856 10.576 19.8496 10.692 20.3136 10.924C20.7856 11.156 21.1376 11.476 21.3696 11.884C21.6016 12.284 21.7176 12.732 21.7176 13.228C21.7176 13.788 21.5576 14.288 21.2376 14.728C20.9256 15.168 20.4616 15.48 19.8456 15.664L21.7896 19H19.4736ZM17.2296 14.368H18.5016C18.8776 14.368 19.1576 14.276 19.3416 14.092C19.5336 13.908 19.6296 13.648 19.6296 13.312C19.6296 12.992 19.5336 12.74 19.3416 12.556C19.1576 12.372 18.8776 12.28 18.5016 12.28H17.2296V14.368ZM28.2497 17.512H25.1057L24.6017 19H22.4537L25.5017 10.576H27.8777L30.9257 19H28.7537L28.2497 17.512ZM27.7217 15.928L26.6777 12.844L25.6457 15.928H27.7217ZM40.8163 13.288C40.8163 13.776 40.7043 14.224 40.4803 14.632C40.2563 15.032 39.9123 15.356 39.4483 15.604C38.9843 15.852 38.4083 15.976 37.7203 15.976H36.4483V19H34.3963V10.576H37.7203C38.3923 10.576 38.9603 10.692 39.4243 10.924C39.8883 11.156 40.2363 11.476 40.4683 11.884C40.7003 12.292 40.8163 12.76 40.8163 13.288ZM37.5643 14.344C37.9563 14.344 38.2483 14.252 38.4403 14.068C38.6323 13.884 38.7283 13.624 38.7283 13.288C38.7283 12.952 38.6323 12.692 38.4403 12.508C38.2483 12.324 37.9563 12.232 37.5643 12.232H36.4483V14.344H37.5643ZM43.9366 12.22V13.924H46.6846V15.508H43.9366V17.356H47.0446V19H41.8846V10.576H47.0446V12.22H43.9366ZM52.6728 19L50.9208 15.82H50.4288V19H48.3768V10.576H51.8208C52.4848 10.576 53.0488 10.692 53.5128 10.924C53.9848 11.156 54.3368 11.476 54.5688 11.884C54.8008 12.284 54.9168 12.732 54.9168 13.228C54.9168 13.788 54.7568 14.288 54.4368 14.728C54.1248 15.168 53.6608 15.48 53.0448 15.664L54.9888 19H52.6728ZM50.4288 14.368H51.7008C52.0768 14.368 52.3568 14.276 52.5408 14.092C52.7328 13.908 52.8288 13.648 52.8288 13.312C52.8288 12.992 52.7328 12.74 52.5408 12.556C52.3568 12.372 52.0768 12.28 51.7008 12.28H50.4288V14.368ZM61.6889 10.576V12.22H58.2569V13.996H60.8249V15.592H58.2569V19H56.2049V10.576H61.6889ZM64.7834 10.576V15.616C64.7834 16.12 64.9074 16.508 65.1554 16.78C65.4034 17.052 65.7674 17.188 66.2474 17.188C66.7274 17.188 67.0954 17.052 67.3514 16.78C67.6074 16.508 67.7354 16.12 67.7354 15.616V10.576H69.7874V15.604C69.7874 16.356 69.6274 16.992 69.3074 17.512C68.9874 18.032 68.5554 18.424 68.0114 18.688C67.4754 18.952 66.8754 19.084 66.2114 19.084C65.5474 19.084 64.9514 18.956 64.4234 18.7C63.9034 18.436 63.4914 18.044 63.1874 17.524C62.8834 16.996 62.7314 16.356 62.7314 15.604V10.576H64.7834ZM80.7684 10.576V19H78.7164V13.948L76.8324 19H75.1764L73.2804 13.936V19H71.2284V10.576H73.6524L76.0164 16.408L78.3564 10.576H80.7684ZM84.296 12.22V13.924H87.044V15.508H84.296V17.356H87.404V19H82.244V10.576H87.404V12.22H84.296ZM91.7842 19.084C91.1682 19.084 90.6162 18.984 90.1282 18.784C89.6402 18.584 89.2482 18.288 88.9522 17.896C88.6642 17.504 88.5122 17.032 88.4962 16.48H90.6802C90.7122 16.792 90.8202 17.032 91.0042 17.2C91.1882 17.36 91.4282 17.44 91.7242 17.44C92.0282 17.44 92.2682 17.372 92.4442 17.236C92.6202 17.092 92.7082 16.896 92.7082 16.648C92.7082 16.44 92.6362 16.268 92.4922 16.132C92.3562 15.996 92.1842 15.884 91.9762 15.796C91.7762 15.708 91.4882 15.608 91.1122 15.496C90.5682 15.328 90.1242 15.16 89.7802 14.992C89.4362 14.824 89.1402 14.576 88.8922 14.248C88.6442 13.92 88.5202 13.492 88.5202 12.964C88.5202 12.18 88.8042 11.568 89.3722 11.128C89.9402 10.68 90.6802 10.456 91.5922 10.456C92.5202 10.456 93.2682 10.68 93.8362 11.128C94.4042 11.568 94.7082 12.184 94.7482 12.976H92.5282C92.5122 12.704 92.4122 12.492 92.2282 12.34C92.0442 12.18 91.8082 12.1 91.5202 12.1C91.2722 12.1 91.0722 12.168 90.9202 12.304C90.7682 12.432 90.6922 12.62 90.6922 12.868C90.6922 13.14 90.8202 13.352 91.0762 13.504C91.3322 13.656 91.7322 13.82 92.2762 13.996C92.8202 14.18 93.2602 14.356 93.5962 14.524C93.9402 14.692 94.2362 14.936 94.4842 15.256C94.7322 15.576 94.8562 15.988 94.8562 16.492C94.8562 16.972 94.7322 17.408 94.4842 17.8C94.2442 18.192 93.8922 18.504 93.4282 18.736C92.9642 18.968 92.4162 19.084 91.7842 19.084Z" fill="black"/>
</svg>
